<svg xmlns="http://www.w3.org/2000/svg" xmlns:xlink="http://www.w3.org/1999/xlink" preserveAspectRatio="xMidYMid" version="1.1" viewBox="0.0 -0.0 256.0 291.6" zoomAndPan="magnify" style="fill: rgb(0, 0, 0);" original_string_length="2925">
 <g>
  <g id="__id105_svcynfayw"><path d="m210.98 97.851c-0.52-0.953-1.2-1.895-2.62-2.612l-20.27-11.708c-0.28-0.16-0.58-0.282-0.9-0.363-0.1-0.024-0.2-0.024-0.31-0.041-0.21-0.036-0.42-0.074-0.63-0.072l-0.04-0.002v0.01c-0.6 0.01-1.19 0.172-1.71 0.47l-45.61 26.337-0.04-0.08-3.68 2.13c-4.44 2.56-9.9 2.56-14.34 0l-19.94-11.51c-1.104-0.641-1.787-1.825-1.787-3.106s0.683-2.465 1.787-3.106l19.94-11.503c4.44-2.563 9.9-2.563 14.34 0l4.8 2.771c1.11 0.638 2.47 0.638 3.58 0l18.57-10.719c1.11-0.64 1.79-1.823 1.79-3.104 0-1.28-0.68-2.464-1.79-3.104l-26.95-15.563c-4.44-2.559-9.9-2.559-14.34 0l-66.022 38.12c-4.779 2.76-4.779 9.654 0 12.414l66.022 38.12c4.44 2.56 9.9 2.56 14.34 0l51.04-29.47v67.13l-16.4 9.5-34.64 20.06c-1.1 0.63-2.27 1.11-3.49 1.44-3.66 0.97-7.56 0.45-10.85-1.44l-47.46-27.4c-2.219-1.28-3.585-3.65-3.584-6.21v-39.13c0-1.28-0.686-2.47-1.792-3.1l-18.564-10.73c-1.11-0.64-2.476-0.64-3.586 0-1.109 0.64-1.791 1.83-1.791 3.11v64.71c0 2.56 1.367 4.92 3.585 6.21l73.192 42.26c2.15 1.24 4.59 1.89 7.07 1.91h0.05c0.35 0 0.7-0.04 1.05-0.06 0.27-0.02 0.54-0.02 0.81-0.05 0.37-0.05 0.74-0.14 1.1-0.21 0.25-0.06 0.5-0.09 0.74-0.15 0.4-0.1 0.78-0.25 1.16-0.39 0.22-0.08 0.43-0.13 0.63-0.21 0.59-0.24 1.17-0.52 1.72-0.84l63.15-36.46 10.01-5.68c2.24-1.27 3.63-3.65 3.63-6.23v-88.76c0-1.28-0.35-2.514-0.97-3.589" style="fill: rgb(70, 63, 87);"/></g>
  <g id="__id106_svcynfayw"><path d="m134.99 31.539c-2.13-1.227-4.53-1.883-6.99-1.906-2.45 0.023-4.86 0.68-6.99 1.906l-88.197 50.922c-4.423 2.555-7.148 7.274-7.149 12.382v101.85c-0.001 5.11 2.724 9.83 7.149 12.38l88.197 50.92c2.16 1.25 4.6 1.91 7.09 1.92 2.49-0.01 4.94-0.67 7.1-1.91l87.81-50.7c4.42-2.55 7.15-7.27 7.15-12.38v-29.43c-0.01-1.28 0.68-2.46 1.78-3.1l18.7-10.79c1.1-0.64 2.47-0.64 3.57 0 1.11 0.64 1.79 1.82 1.79 3.1v54.81c-0.01 2.34-0.59 4.64-1.69 6.7-0.28 1.35-1.75 2.94-3.83 4.57-0.04 0.04-0.1 0.08-0.15 0.12-5.28 4.11-14.02 8.35-15.57 9.25l-99.56 57.48c-2.23 1.28-4.77 1.94-7.34 1.91h-0.04-0.07v-0.01c-2.37-0.06-4.69-0.72-6.74-1.9l-113.86-65.74c-4.4241-2.55-7.149-7.27-7.15-12.38v-131.48c0-2.296 0.29071-4.634 1.2987-6.614 0.1382-0.512 1.5179-3.038 4.3607-5.116 1.0723-0.722 2.9667-1.692 4.7416-2.719l110.29-63.674c2.22-1.2792 4.75-1.9376 7.31-1.9059 2.57-0.032393 5.09 0.62611 7.31 1.9064l101.77 58.75c0.23 0.141 0.41 0.31 0.61 0.472l1.29 0.738c3.46 1.835 8.88 4.63 11.82 6.863l0.24 0.181c0.04 0.03 0.08 0.059 0.12 0.086 0.1 0.086 0.17 0.172 0.27 0.262 1.08 0.903 2 1.964 2.71 3.15 0.02 0.015 0.03 0.036 0.05 0.055l-0.01 0.003c1.19 1.986 1.82 4.256 1.82 6.569v48.143c0 1.28-0.68 2.46-1.79 3.1l-18.7 10.8c-1.1 0.63-2.47 0.63-3.57 0-1.11-0.64-1.79-1.82-1.79-3.1v-43.416c0-5.114-2.73-9.839-7.16-12.391l-88-50.637v0.003z" style="fill: rgb(70, 63, 87);"/></g>
 </g>
</svg>